<svg xmlns="http://www.w3.org/2000/svg" width="24" height="24" viewBox="0 0 24 24" fill="none">
  <path
    d="M4 8.92306H7.69231V20H4V8.92306ZM9.53847 8.92306H13.2308V10.2733C14.4033 9.57166 15.7929 8.92306 16.9231 8.92306C19.3846 8.92306 20 11.3846 20 11.3846V20H16.3077V12.6154C15.8306 11.1842 14.6138 11.2323 13.2308 12.4732V20H9.53847V8.92306ZM5.84616 4C6.86574 4 7.69231 4.82653 7.69231 5.84616C7.69231 6.86574 6.86574 7.69231 5.84616 7.69231C4.82653 7.69231 4 6.86574 4 5.84616C4 4.82653 4.82653 4 5.84616 4Z"
    stroke="#0B3864" stroke-width="0.789474" stroke-linejoin="round" />
</svg>