<svg xmlns="http://www.w3.org/2000/svg" width="24" height="24" viewBox="0 0 24 24" fill="none">
  <path
    d="M3.6 6.9H6.6C6.78 6.9 6.9 6.78 6.9 6.6V3.6H16.8V5.1H17.4V3.3C17.4 3.12 17.28 3 17.1 3H6.6C6.57 3 6.54 3 6.51 3.03H6.48C6.45 3.06 6.42 3.06 6.39 3.09L3.09 6.39C3.06 6.42 3.06 6.45 3.03 6.48V6.51C3.03 6.54 3 6.57 3 6.6V20.7C3 20.88 3.12 21 3.3 21H12V20.4H3.6V6.9ZM4.02 6.3L5.16 5.16L6.3 4.02V6.3H4.02Z"
    fill="#0B3864" />
  <path
    d="M18.9 14.7H15.9C14.73 14.7 13.8 15.63 13.8 16.8V21H14.4V16.8C14.4 15.96 15.06 15.3 15.9 15.3H16.29L17.13 17.52C17.16 17.61 17.28 17.7 17.4 17.7C17.52 17.7 17.64 17.61 17.73 17.52L18.57 15.3H18.9C19.74 15.3 20.4 15.96 20.4 16.8V21H21V16.8C21 15.63 20.07 14.7 18.9 14.7ZM17.43 16.56L16.95 15.3H17.91L17.43 16.56Z"
    fill="#0B3864" />
  <path d="M17.7 18.3H17.1V18.9H17.7V18.3Z" fill="#0B3864" />
  <path d="M17.7 19.5H17.1V20.1H17.7V19.5Z" fill="#0B3864" />
  <path
    d="M17.1 14.4H17.7C18.54 14.4 19.2 13.74 19.2 12.9V12C19.2 11.16 18.54 10.5 17.7 10.5H17.1C16.26 10.5 15.6 11.16 15.6 12V12.9C15.6 13.74 16.26 14.4 17.1 14.4ZM16.2 12C16.2 11.49 16.59 11.1 17.1 11.1H17.7C18.21 11.1 18.6 11.49 18.6 12V12.9C18.6 13.41 18.21 13.8 17.7 13.8H17.1C16.59 13.8 16.2 13.41 16.2 12.9V12Z"
    fill="#0B3864" />
  <path d="M15.9 17.7H15.3V21H15.9V17.7Z" fill="#0B3864" />
  <path d="M19.5 17.7H18.9V21H19.5V17.7Z" fill="#0B3864" />
  <path
    d="M20.7 7.2H19.8V6.3C19.8 6.12 19.68 6 19.5 6H13.2V6.6H19.2V7.2H18.3H9.90001C9.84001 7.2 9.78001 7.23 9.75001 7.23L7.38001 8.13C7.29001 8.16 7.20001 8.28 7.20001 8.4C7.20001 8.52 7.29001 8.64 7.38001 8.67L9.75001 9.57C9.78001 9.57 9.81001 9.6 9.84001 9.6C9.87001 9.6 9.90001 9.6 9.90001 9.6H18.3H20.7C20.88 9.6 21 9.48 21 9.3V7.5C21 7.32 20.88 7.2 20.7 7.2ZM9.60001 7.95V8.88L8.34001 8.4L9.60001 7.95ZM10.2 7.8H18V9H10.2V7.8ZM20.4 9H18.6V7.8H20.4V9Z"
    fill="#0B3864" />
  <path d="M7.80005 11.4H4.80005V12H7.80005V11.4Z" fill="#0B3864" />
  <path d="M7.80005 12.6H4.80005V13.2H7.80005V12.6Z" fill="#0B3864" />
  <path d="M7.80005 13.8H4.80005V14.4H7.80005V13.8Z" fill="#0B3864" />
  <path d="M7.80005 15H4.80005V15.6H7.80005V15Z" fill="#0B3864" />
  <path d="M12 11.4H9V12H12V11.4Z" fill="#0B3864" />
  <path d="M12 12.6H9V13.2H12V12.6Z" fill="#0B3864" />
  <path d="M14.7 11.4H13.2V12H14.7V11.4Z" fill="#0B3864" />
  <path d="M14.7 12.6H13.2V13.2H14.7V12.6Z" fill="#0B3864" />
  <path d="M12 13.8H9V14.4H12V13.8Z" fill="#0B3864" />
  <path d="M12 15H9V15.6H12V15Z" fill="#0B3864" />
  <path d="M5.40005 16.5H4.80005V17.1H5.40005V16.5Z" fill="#0B3864" />
  <path d="M6.6 16.5H6V17.1H6.6V16.5Z" fill="#0B3864" />
  <path d="M7.80001 16.5H7.20001V17.1H7.80001V16.5Z" fill="#0B3864" />
  <path d="M9.6 16.5H9V17.1H9.6V16.5Z" fill="#0B3864" />
  <path d="M10.8 16.5H10.2V17.1H10.8V16.5Z" fill="#0B3864" />
  <path d="M12 16.5H11.4V17.1H12V16.5Z" fill="#0B3864" />
  <path d="M5.40005 17.7H4.80005V18.3H5.40005V17.7Z" fill="#0B3864" />
  <path d="M6.6 17.7H6V18.3H6.6V17.7Z" fill="#0B3864" />
  <path d="M7.80001 17.7H7.20001V18.3H7.80001V17.7Z" fill="#0B3864" />
  <path d="M9.6 17.7H9V18.3H9.6V17.7Z" fill="#0B3864" />
  <path d="M10.8 17.7H10.2V18.3H10.8V17.7Z" fill="#0B3864" />
  <path d="M12 17.7H11.4V18.3H12V17.7Z" fill="#0B3864" />
  <path d="M5.40005 18.9H4.80005V19.5H5.40005V18.9Z" fill="#0B3864" />
  <path d="M6.6 18.9H6V19.5H6.6V18.9Z" fill="#0B3864" />
  <path d="M7.80001 18.9H7.20001V19.5H7.80001V18.9Z" fill="#0B3864" />
  <path d="M9.6 18.9H9V19.5H9.6V18.9Z" fill="#0B3864" />
  <path d="M10.8 18.9H10.2V19.5H10.8V18.9Z" fill="#0B3864" />
  <path d="M12 18.9H11.4V19.5H12V18.9Z" fill="#0B3864" />
</svg>