<svg xmlns="http://www.w3.org/2000/svg" width="24" height="24" viewBox="0 0 24 24" fill="none">
  <path
    d="M12.5 18C9.46243 18 7 15.5376 7 12.5C7 9.46243 9.46243 7 12.5 7C15.5376 7 18 9.46243 18 12.5C18 15.5376 15.5376 18 12.5 18ZM12.5 17C14.9853 17 17 14.9853 17 12.5C17 10.0147 14.9853 8 12.5 8C10.0147 8 8 10.0147 8 12.5C8 14.9853 10.0147 17 12.5 17ZM13 5.5C13 5.77614 12.7761 6 12.5 6C12.2239 6 12 5.77614 12 5.5V2.5C12 2.22386 12.2239 2 12.5 2C12.7761 2 13 2.22386 13 2.5V5.5ZM13 22.5C13 22.7761 12.7761 23 12.5 23C12.2239 23 12 22.7761 12 22.5V19.5C12 19.2239 12.2239 19 12.5 19C12.7761 19 13 19.2239 13 19.5V22.5ZM17.8033 7.90381C17.608 8.09907 17.2915 8.09907 17.0962 7.90381C16.9009 7.70854 16.9009 7.39196 17.0962 7.1967L19.1464 5.14645C19.3417 4.95118 19.6583 4.95118 19.8536 5.14645C20.0488 5.34171 20.0488 5.65829 19.8536 5.85355L17.8033 7.90381ZM5.85355 19.8536C5.65829 20.0488 5.34171 20.0488 5.14645 19.8536C4.95118 19.6583 4.95118 19.3417 5.14645 19.1464L7.1967 17.0962C7.39196 16.9009 7.70854 16.9009 7.90381 17.0962C8.09907 17.2915 8.09907 17.608 7.90381 17.8033L5.85355 19.8536ZM19.5 13C19.2239 13 19 12.7761 19 12.5C19 12.2239 19.2239 12 19.5 12H22.5C22.7761 12 23 12.2239 23 12.5C23 12.7761 22.7761 13 22.5 13H19.5ZM2.5 13C2.22386 13 2 12.7761 2 12.5C2 12.2239 2.22386 12 2.5 12H5.5C5.77614 12 6 12.2239 6 12.5C6 12.7761 5.77614 13 5.5 13H2.5ZM17.0962 17.8033C16.9009 17.608 16.9009 17.2915 17.0962 17.0962C17.2915 16.9009 17.608 16.9009 17.8033 17.0962L19.8536 19.1464C20.0488 19.3417 20.0488 19.6583 19.8536 19.8536C19.6583 20.0488 19.3417 20.0488 19.1464 19.8536L17.0962 17.8033ZM5.14645 5.85355C4.95118 5.65829 4.95118 5.34171 5.14645 5.14645C5.34171 4.95118 5.65829 4.95118 5.85355 5.14645L7.90381 7.1967C8.09907 7.39196 8.09907 7.70854 7.90381 7.90381C7.70854 8.09907 7.39196 8.09907 7.1967 7.90381L5.14645 5.85355Z"
    fill="#FFFF00" />
</svg>