<svg xmlns="http://www.w3.org/2000/svg" width="24" height="24" viewBox="0 0 24 24" fill="none">
  <path
    d="M22.2026 3H1.79742C0.804703 3 0 3.87 0 4.94326V18.0567C0 19.13 0.804703 20 1.79742 20H22.2026C23.1952 20 24 19.13 24 18.0567V4.94326C24 3.87 23.1953 3 22.2026 3Z"
    fill="#41479B" />
  <path
    d="M23.9751 4.62206C23.8335 3.70179 23.094 3 22.2026 3H21.7349L14.069 8.43003V3.00005H9.93103V8.43008L2.26509 3.00005H1.79742C0.906 3.00005 0.166547 3.70179 0.0248906 4.62211L6.57698 9.26324H0V13.7369H6.57698L0.0248906 18.3779C0.166547 19.2982 0.906 20 1.79742 20H2.26509L9.93103 14.57V20H14.069V14.57L21.7349 20H22.2026C23.094 20 23.8335 19.2983 23.9751 18.3779L17.423 13.7368H24V9.26313H17.423L23.9751 4.62206Z"
    fill="#F5F5F5" />
  <path d="M13.2414 3H10.7586V10.1579H0V12.8421H10.7586V20H13.2414V12.8421H24V10.1579H13.2414V3Z"
    fill="#FF4B55" />
  <path
    d="M1.16217 19.8747L9.90825 13.7368H8.38819L0.432373 19.3202C0.627045 19.5658 0.877217 19.7583 1.16217 19.8747Z"
    fill="#FF4B55" />
  <path
    d="M16.237 13.7368H14.7169L23.188 19.6817C23.425 19.5134 23.6228 19.286 23.7639 19.0191L16.237 13.7368Z"
    fill="#FF4B55" />
  <path
    d="M0.189819 4.07432L7.58341 9.26314H9.10348L0.725413 3.38342C0.50046 3.56445 0.316382 3.80111 0.189819 4.07432Z"
    fill="#FF4B55" />
  <path
    d="M15.589 9.26315L23.5594 3.66951C23.3626 3.42468 23.1105 3.23332 22.8235 3.11914L14.069 9.26315H15.589Z"
    fill="#FF4B55" />
</svg>