<svg xmlns="http://www.w3.org/2000/svg" width="24" height="24" viewBox="0 0 24 24" fill="none">
  <path
    d="M24 18C24 18.7956 23.719 19.5587 23.219 20.1213C22.7189 20.6839 22.0406 21 21.3333 21H2.66667C1.95942 21 1.28115 20.6839 0.781049 20.1213C0.280952 19.5587 0 18.7956 0 18V15H24V18Z"
    fill="#CE2028" />
  <path d="M0 10H24V15H0V10Z" fill="#22408C" />
  <path
    d="M21.3333 4H2.66667C1.95942 4 1.28115 4.31607 0.781049 4.87868C0.280952 5.44129 0 6.20435 0 7L0 10H24V7C24 6.20435 23.719 5.44129 23.219 4.87868C22.7189 4.31607 22.0406 4 21.3333 4Z"
    fill="#EEEEEE" />
</svg>