<svg xmlns="http://www.w3.org/2000/svg" width="24" height="24" viewBox="0 0 24 24" fill="none">
  <path
    d="M0 6V9H24V6C24 5.20435 23.719 4.44129 23.219 3.87868C22.7189 3.31607 22.0406 3 21.3333 3H2.66667C1.95942 3 1.28115 3.31607 0.781049 3.87868C0.280952 4.44129 0 5.20435 0 6Z"
    fill="#0099B5" />
  <path
    d="M24 17V14H0V17C0 17.7956 0.280952 18.5587 0.781049 19.1213C1.28115 19.6839 1.95942 20 2.66667 20H21.3333C22.0406 20 22.7189 19.6839 23.219 19.1213C23.719 18.5587 24 17.7956 24 17Z"
    fill="#1EB53A" />
  <path d="M0 9H24V9.9H0V9ZM0 14.1H24V15H0V14.1Z" fill="#CE1126" />
  <path d="M0 11.95V14.2H24V9.70001H0V11.95Z" fill="#EEEEEE" />
  <path
    d="M2.67475 6C2.67481 5.5274 2.8439 5.07009 3.15206 4.70915C3.46021 4.34821 3.8875 4.10697 4.35818 4.02821C4.06843 3.97951 3.77144 3.994 3.48792 4.07065C3.20441 4.14731 2.9412 4.28428 2.71667 4.47203C2.49214 4.65977 2.31169 4.89376 2.18791 5.15766C2.06413 5.42156 2 5.70903 2 6C2 6.29097 2.06413 6.57844 2.18791 6.84234C2.31169 7.10624 2.49214 7.34023 2.71667 7.52797C2.9412 7.71572 3.20441 7.85269 3.48792 7.92935C3.77144 8.006 4.06843 8.02049 4.35818 7.97179C3.8875 7.89303 3.46021 7.65179 3.15206 7.29085C2.8439 6.92991 2.67481 6.4726 2.67475 6ZM5.70687 7.47628L5.61622 7.2L5.52558 7.47628H5.23162L5.46925 7.64744L5.3786 7.92372L5.61622 7.75256L5.8532 7.92372L5.76255 7.64744L6.00017 7.47628H5.70687ZM7.45634 7.47628L7.36569 7.2L7.27505 7.47628H6.98174L7.21936 7.64744L7.12872 7.92372L7.36569 7.75256L7.60332 7.92372L7.51267 7.64744L7.75029 7.47628H7.45634ZM7.36569 5.6L7.27505 5.87628H6.98174L7.21936 6.04744L7.12872 6.32372L7.36569 6.15256L7.60332 6.32372L7.51267 6.04744L7.75029 5.87628H7.45634L7.36569 5.6ZM9.20646 7.47628L9.11581 7.2L9.02517 7.47628H8.73186L8.96884 7.64744L8.87819 7.92372L9.11581 7.75256L9.35343 7.92372L9.26279 7.64744L9.49976 7.47628H9.20646ZM9.11581 5.6L9.02517 5.87628H8.73186L8.96884 6.04744L8.87819 6.32372L9.11581 6.15256L9.35343 6.32372L9.26279 6.04744L9.49976 5.87628H9.20646L9.11581 5.6ZM9.11581 4L9.02517 4.27628H8.73186L8.96884 4.44744L8.87819 4.72372L9.11581 4.55256L9.35343 4.72372L9.26279 4.44744L9.49976 4.27628H9.20646L9.11581 4ZM10.9566 7.47628L10.8659 7.2L10.7753 7.47628H10.4813L10.719 7.64744L10.6283 7.92372L10.8659 7.75256L11.1029 7.92372L11.0123 7.64744L11.2499 7.47628H10.9566ZM10.8659 5.6L10.7753 5.87628H10.4813L10.719 6.04744L10.6283 6.32372L10.8659 6.15256L11.1029 6.32372L11.0123 6.04744L11.2499 5.87628H10.9566L10.8659 5.6ZM10.8659 4L10.7753 4.27628H10.4813L10.719 4.44744L10.6283 4.72372L10.8659 4.55256L11.1029 4.72372L11.0123 4.44744L11.2499 4.27628H10.9566L10.8659 4ZM12.706 7.47628L12.6154 7.2L12.5248 7.47628H12.2315L12.4691 7.64744L12.3784 7.92372L12.6154 7.75256L12.853 7.92372L12.7624 7.64744L13 7.47628H12.706ZM12.6154 5.6L12.5248 5.87628H12.2315L12.4691 6.04744L12.3784 6.32372L12.6154 6.15256L12.853 6.32372L12.7624 6.04744L13 5.87628H12.706L12.6154 5.6ZM12.6154 4L12.5248 4.27628H12.2315L12.4691 4.44744L12.3784 4.72372L12.6154 4.55256L12.853 4.72372L12.7624 4.44744L13 4.27628H12.706L12.6154 4Z"
    fill="white" />
</svg>